<svg xmlns="http://www.w3.org/2000/svg" xmlns:xlink="http://www.w3.org/1999/xlink" width="1361" zoomAndPan="magnify" viewBox="0 0 1020.75 809.999993" height="1080" preserveAspectRatio="xMidYMid meet" version="1.0"><defs><clipPath id="0edb20c004"><path d="M 116 13.777344 L 899 13.777344 L 899 796.222656 L 116 796.222656 Z M 116 13.777344 " clip-rule="nonzero"/></clipPath><clipPath id="7feb9d3c3e"><path d="M 506.761719 13.8125 C 290.925781 14.058594 116.007812 189.113281 116.007812 405.003906 C 116.007812 621.058594 291.144531 796.195312 507.199219 796.195312 C 722.925781 796.195312 897.898438 621.550781 898.390625 405.933594 L 898.390625 404.152344 C 897.925781 188.617188 723.226562 14.058594 507.664062 13.8125 Z M 506.761719 13.8125 " clip-rule="nonzero"/></clipPath><clipPath id="3949d92980"><path d="M 0 0.777344 L 782.578125 0.777344 L 782.578125 783.222656 L 0 783.222656 Z M 0 0.777344 " clip-rule="nonzero"/></clipPath><clipPath id="642da84a9a"><path d="M 390.761719 0.8125 C 174.925781 1.058594 0.0078125 176.113281 0.0078125 392.003906 C 0.0078125 608.058594 175.144531 783.195312 391.199219 783.195312 C 606.925781 783.195312 781.898438 608.550781 782.390625 392.933594 L 782.390625 391.152344 C 781.925781 175.617188 607.226562 1.058594 391.664062 0.8125 Z M 390.761719 0.8125 " clip-rule="nonzero"/></clipPath><clipPath id="27322b6d1f"><rect x="0" width="783" y="0" height="784"/></clipPath><clipPath id="8cb6cd2de7"><path d="M 13.679688 175.191406 L 519 175.191406 L 519 637 L 13.679688 637 Z M 13.679688 175.191406 " clip-rule="nonzero"/></clipPath><clipPath id="96faceb4ea"><path d="M 276.445312 316.144531 C 276.445312 279.972656 305.761719 250.65625 341.964844 250.65625 L 518.554688 250.65625 L 518.554688 216.070312 C 518.554688 193.664062 500.398438 175.484375 477.964844 175.484375 L 54.300781 175.484375 C 31.867188 175.484375 13.710938 193.664062 13.710938 216.070312 L 13.710938 489.253906 C 13.710938 511.660156 31.867188 529.839844 54.300781 529.839844 L 113.183594 529.839844 L 112.773438 636.800781 L 215.890625 529.839844 L 276.445312 529.839844 Z M 276.445312 316.144531 " clip-rule="nonzero"/></clipPath><clipPath id="e7153bc709"><path d="M 0.679688 0.257812 L 505.753906 0.257812 L 505.753906 461.902344 L 0.679688 461.902344 Z M 0.679688 0.257812 " clip-rule="nonzero"/></clipPath><clipPath id="db82d18177"><path d="M 263.445312 141.144531 C 263.445312 104.972656 292.761719 75.65625 328.964844 75.65625 L 505.554688 75.65625 L 505.554688 41.070312 C 505.554688 18.664062 487.398438 0.484375 464.964844 0.484375 L 41.300781 0.484375 C 18.867188 0.484375 0.710938 18.664062 0.710938 41.070312 L 0.710938 314.253906 C 0.710938 336.660156 18.867188 354.839844 41.300781 354.839844 L 100.183594 354.839844 L 99.773438 461.800781 L 202.890625 354.839844 L 263.445312 354.839844 Z M 263.445312 141.144531 " clip-rule="nonzero"/></clipPath><clipPath id="a7643ef73b"><rect x="0" width="506" y="0" height="462"/></clipPath><clipPath id="d1bbc47eb7"><path d="M 306.410156 281 L 812 281 L 812 743 L 306.410156 743 Z M 306.410156 281 " clip-rule="nonzero"/></clipPath><clipPath id="8b559538a8"><path d="M 771.191406 281.179688 L 347.558594 281.179688 C 325.152344 281.179688 306.96875 299.335938 306.96875 321.769531 L 306.96875 594.949219 C 306.96875 617.355469 325.125 635.539062 347.558594 635.539062 L 609.605469 635.539062 L 712.722656 742.496094 L 712.3125 635.539062 L 771.191406 635.539062 C 793.597656 635.539062 811.78125 617.382812 811.78125 594.949219 L 811.78125 321.769531 C 811.78125 299.363281 793.625 281.179688 771.191406 281.179688 " clip-rule="nonzero"/></clipPath><clipPath id="43da41423a"><path d="M 0.886719 0.0703125 L 505.960938 0.0703125 L 505.960938 461.71875 L 0.886719 461.71875 Z M 0.886719 0.0703125 " clip-rule="nonzero"/></clipPath><clipPath id="f9179f7c2e"><path d="M 465.191406 0.179688 L 41.558594 0.179688 C 19.152344 0.179688 0.96875 18.335938 0.96875 40.769531 L 0.96875 313.949219 C 0.96875 336.355469 19.125 354.539062 41.558594 354.539062 L 303.605469 354.539062 L 406.722656 461.496094 L 406.3125 354.539062 L 465.191406 354.539062 C 487.597656 354.539062 505.78125 336.382812 505.78125 313.949219 L 505.78125 40.769531 C 505.78125 18.363281 487.625 0.179688 465.191406 0.179688 " clip-rule="nonzero"/></clipPath><clipPath id="ff9fa766c6"><rect x="0" width="506" y="0" height="462"/></clipPath><clipPath id="1721d679c2"><path d="M 596 111 L 998 111 L 998 473 L 596 473 Z M 596 111 " clip-rule="nonzero"/></clipPath><clipPath id="5e0666f0ab"><path d="M 642.488281 472.085938 C 625.703125 472.085938 610.703125 463.417969 602.308594 448.882812 C 593.917969 434.347656 593.917969 417.015625 602.308594 402.480469 L 756.683594 135.085938 C 765.078125 120.550781 780.078125 111.882812 796.863281 111.882812 C 813.648438 111.882812 828.648438 120.550781 837.039062 135.085938 L 991.417969 402.480469 C 999.808594 417.015625 999.808594 434.347656 991.417969 448.882812 C 983.023438 463.417969 967.996094 472.085938 951.238281 472.085938 Z M 642.488281 472.085938 " clip-rule="nonzero"/></clipPath><clipPath id="abfd76639c"><path d="M 0 0.671875 L 402 0.671875 L 402 361.304688 L 0 361.304688 Z M 0 0.671875 " clip-rule="nonzero"/></clipPath><clipPath id="f4e5d2bd7d"><path d="M 46.488281 361.085938 C 29.703125 361.085938 14.703125 352.417969 6.308594 337.882812 C -2.082031 323.347656 -2.082031 306.015625 6.308594 291.480469 L 160.683594 24.085938 C 169.078125 9.550781 184.078125 0.882812 200.863281 0.882812 C 217.648438 0.882812 232.648438 9.550781 241.039062 24.085938 L 395.417969 291.480469 C 403.808594 306.015625 403.808594 323.347656 395.417969 337.882812 C 387.023438 352.417969 371.996094 361.085938 355.238281 361.085938 Z M 46.488281 361.085938 " clip-rule="nonzero"/></clipPath><clipPath id="6fbceed7d9"><rect x="0" width="402" y="0" height="362"/></clipPath><clipPath id="f6d9e05375"><path d="M 586 102 L 1006.78125 102 L 1006.78125 481.601562 L 586 481.601562 Z M 586 102 " clip-rule="nonzero"/></clipPath><clipPath id="20a7e01864"><path d="M 796.890625 102.859375 C 776.84375 102.859375 758.90625 113.226562 748.894531 130.558594 L 671.695312 264.285156 L 594.492188 397.980469 C 584.484375 415.316406 584.484375 436.046875 594.492188 453.40625 C 604.503906 470.769531 622.4375 481.105469 642.488281 481.105469 L 951.238281 481.105469 C 971.257812 481.105469 989.222656 470.742188 999.230469 453.40625 C 1009.242188 436.074219 1009.242188 415.34375 999.230469 397.980469 L 922.058594 264.285156 L 844.855469 130.585938 C 834.847656 113.226562 816.910156 102.886719 796.863281 102.886719 M 796.863281 120.933594 C 809.449219 120.933594 822.039062 127.160156 829.222656 139.609375 L 906.425781 273.308594 L 983.628906 407.003906 C 997.996094 431.90625 980.035156 463.0625 951.265625 463.0625 L 642.488281 463.0625 C 613.71875 463.0625 595.726562 431.933594 610.125 407.003906 L 687.328125 273.308594 L 764.527344 139.609375 C 771.714844 127.160156 784.300781 120.933594 796.890625 120.933594 " clip-rule="nonzero"/></clipPath><clipPath id="912e43cfd4"><path d="M 0 0.792969 L 420.78125 0.792969 L 420.78125 379.179688 L 0 379.179688 Z M 0 0.792969 " clip-rule="nonzero"/></clipPath><clipPath id="a0ab950720"><path d="M 210.890625 0.859375 C 190.84375 0.859375 172.90625 11.226562 162.894531 28.558594 L 85.695312 162.285156 L 8.492188 295.980469 C -1.515625 313.316406 -1.515625 334.046875 8.492188 351.40625 C 18.503906 368.769531 36.4375 379.105469 56.488281 379.105469 L 365.238281 379.105469 C 385.257812 379.105469 403.222656 368.742188 413.230469 351.40625 C 423.242188 334.074219 423.242188 313.34375 413.230469 295.980469 L 336.058594 162.285156 L 258.855469 28.585938 C 248.847656 11.226562 230.910156 0.886719 210.863281 0.886719 M 210.863281 18.933594 C 223.449219 18.933594 236.039062 25.160156 243.222656 37.609375 L 320.425781 171.308594 L 397.628906 305.003906 C 411.996094 329.90625 394.035156 361.0625 365.265625 361.0625 L 56.488281 361.0625 C 27.71875 361.0625 9.726562 329.933594 24.125 305.003906 L 101.328125 171.308594 L 178.527344 37.609375 C 185.714844 25.160156 198.300781 18.933594 210.890625 18.933594 " clip-rule="nonzero"/></clipPath><clipPath id="11c9ae5621"><rect x="0" width="421" y="0" height="380"/></clipPath><clipPath id="c85e1568ec"><path d="M 623 140 L 971 140 L 971 447 L 623 447 Z M 623 140 " clip-rule="nonzero"/></clipPath><clipPath id="bacafd48dd"><path d="M 777.910156 151.15625 C 786.359375 136.539062 807.421875 136.539062 815.867188 151.15625 L 891.753906 282.578125 L 967.636719 414 C 976.085938 428.617188 965.527344 446.851562 948.660156 446.851562 L 645.121094 446.851562 C 628.253906 446.851562 617.722656 428.589844 626.140625 414 L 702.027344 282.578125 Z M 777.910156 151.15625 " clip-rule="nonzero"/></clipPath><clipPath id="4fb8d62271"><path d="M 0 0 L 348 0 L 348 306.871094 L 0 306.871094 Z M 0 0 " clip-rule="nonzero"/></clipPath><clipPath id="b1bcb07aac"><path d="M 154.910156 11.15625 C 163.359375 -3.460938 184.421875 -3.460938 192.867188 11.15625 L 268.753906 142.578125 L 344.636719 274 C 353.085938 288.617188 342.527344 306.851562 325.660156 306.851562 L 22.121094 306.851562 C 5.253906 306.851562 -5.277344 288.589844 3.140625 274 L 79.027344 142.578125 Z M 154.910156 11.15625 " clip-rule="nonzero"/></clipPath><clipPath id="3e3c7c2894"><rect x="0" width="348" y="0" height="307"/></clipPath><clipPath id="da9f6d8648"><path d="M 773 238.113281 L 820.746094 238.113281 L 820.746094 401 L 773 401 Z M 773 238.113281 " clip-rule="nonzero"/></clipPath><clipPath id="869e8d2a5f"><path d="M 783.589844 339.566406 L 777.882812 273.609375 L 776.457031 238.503906 L 817.265625 238.503906 L 815.839844 273.609375 L 810.136719 339.566406 Z M 796.863281 400.3125 C 789.898438 400.3125 784.21875 397.953125 779.777344 393.183594 C 775.332031 388.410156 773.140625 382.597656 773.140625 375.628906 C 773.140625 368.664062 775.363281 362.824219 779.777344 358.078125 C 784.191406 353.335938 789.898438 350.949219 796.863281 350.949219 C 803.828125 350.949219 809.503906 353.335938 813.949219 358.078125 C 818.390625 362.824219 820.585938 368.664062 820.585938 375.628906 C 820.585938 382.597656 818.363281 388.4375 813.949219 393.183594 C 809.53125 397.925781 803.828125 400.3125 796.863281 400.3125 " clip-rule="nonzero"/></clipPath><clipPath id="9c7fc7f5a3"><path d="M 0.0898438 0.359375 L 47.597656 0.359375 L 47.597656 162.320312 L 0.0898438 162.320312 Z M 0.0898438 0.359375 " clip-rule="nonzero"/></clipPath><clipPath id="3c3ce04aa4"><path d="M 10.589844 101.566406 L 4.882812 35.609375 L 3.457031 0.503906 L 44.265625 0.503906 L 42.839844 35.609375 L 37.136719 101.566406 Z M 23.863281 162.3125 C 16.898438 162.3125 11.21875 159.953125 6.777344 155.183594 C 2.332031 150.410156 0.140625 144.597656 0.140625 137.628906 C 0.140625 130.664062 2.363281 124.824219 6.777344 120.078125 C 11.191406 115.335938 16.898438 112.949219 23.863281 112.949219 C 30.828125 112.949219 36.503906 115.335938 40.949219 120.078125 C 45.390625 124.824219 47.585938 130.664062 47.585938 137.628906 C 47.585938 144.597656 45.363281 150.4375 40.949219 155.183594 C 36.53125 159.925781 30.828125 162.3125 23.863281 162.3125 " clip-rule="nonzero"/></clipPath><clipPath id="7db88f4f3a"><rect x="0" width="48" y="0" height="163"/></clipPath></defs><g clip-path="url(#0edb20c004)"><g clip-path="url(#7feb9d3c3e)"><g transform="matrix(1, 0, 0, 1, 116, 13)"><g clip-path="url(#27322b6d1f)"><g clip-path="url(#3949d92980)"><g clip-path="url(#642da84a9a)"><rect x="-340.565" width="1469.88" fill="#fff3e3" height="1166.39999" y="-191.199998" fill-opacity="1"/></g></g></g></g></g></g><g clip-path="url(#8cb6cd2de7)"><g clip-path="url(#96faceb4ea)"><g transform="matrix(1, 0, 0, 1, 13, 175)"><g clip-path="url(#a7643ef73b)"><g clip-path="url(#e7153bc709)"><g clip-path="url(#db82d18177)"><rect x="-237.565" width="1469.88" fill="#b1b4b6" height="1166.39999" y="-353.199998" fill-opacity="1"/></g></g></g></g></g></g><g clip-path="url(#d1bbc47eb7)"><g clip-path="url(#8b559538a8)"><g transform="matrix(1, 0, 0, 1, 306, 281)"><g clip-path="url(#ff9fa766c6)"><g clip-path="url(#43da41423a)"><g clip-path="url(#f9179f7c2e)"><rect x="-530.565" width="1469.88" fill="#2a6c87" height="1166.39999" y="-459.199998" fill-opacity="1"/></g></g></g></g></g></g><g clip-path="url(#1721d679c2)"><g clip-path="url(#5e0666f0ab)"><g transform="matrix(1, 0, 0, 1, 596, 111)"><g clip-path="url(#6fbceed7d9)"><g clip-path="url(#abfd76639c)"><g clip-path="url(#f4e5d2bd7d)"><rect x="-820.565" width="1469.88" fill="#ffffff" height="1166.39999" y="-289.199998" fill-opacity="1"/></g></g></g></g></g></g><g clip-path="url(#f6d9e05375)"><g clip-path="url(#20a7e01864)"><g transform="matrix(1, 0, 0, 1, 586, 102)"><g clip-path="url(#11c9ae5621)"><g clip-path="url(#912e43cfd4)"><g clip-path="url(#a0ab950720)"><rect x="-810.565" width="1469.88" fill="#ed1631" height="1166.39999" y="-280.199998" fill-opacity="1"/></g></g></g></g></g></g><g clip-path="url(#c85e1568ec)"><g clip-path="url(#bacafd48dd)"><g transform="matrix(1, 0, 0, 1, 623, 140)"><g clip-path="url(#3e3c7c2894)"><g clip-path="url(#4fb8d62271)"><g clip-path="url(#b1bcb07aac)"><rect x="-847.565" width="1469.88" fill="#ed1631" height="1166.39999" y="-318.199998" fill-opacity="1"/></g></g></g></g></g></g><g clip-path="url(#da9f6d8648)"><g clip-path="url(#869e8d2a5f)"><g transform="matrix(1, 0, 0, 1, 773, 238)"><g clip-path="url(#7db88f4f3a)"><g clip-path="url(#9c7fc7f5a3)"><g clip-path="url(#3c3ce04aa4)"><rect x="-997.565" width="1469.88" fill="#ffffff" height="1166.39999" y="-416.199998" fill-opacity="1"/></g></g></g></g></g></g></svg>