<svg width="40" height="40" xmlns="http://www.w3.org/2000/svg" xmlns:xlink="http://www.w3.org/1999/xlink" xml:space="preserve" overflow="hidden"><g transform="translate(-106 -354)"><path d="M140.167 388.833 131.833 380.917 140.167 373 140.167 388.833ZM113.167 389.833 121.417 382.042 122 381.5C124.25 379.375 127.792 379.375 130.042 381.5L130.625 382.042 138.833 389.833 113.167 389.833ZM111.833 372.958 120.167 380.875 111.833 388.792 111.833 372.958ZM117.667 362.333 134.333 362.333 134.333 376.208 130.583 379.792C127.875 377.708 124.125 377.708 121.417 379.792L117.667 376.208 117.667 362.333ZM136.833 363.458 136.833 359.833 131 359.833 126 355.667 121 359.833 115.167 359.833 115.167 363.5 109.333 369.042 109.333 392.333 142.667 392.333 142.667 369.042 136.833 363.458Z"/><path d="M126 371.625C125.25 371.625 124.667 371 124.667 370.292 124.667 369.542 125.292 368.958 126 368.958 126.75 368.958 127.333 369.542 127.333 370.292 127.333 371.042 126.75 371.625 126 371.625ZM126 375.667C126.958 375.667 127.875 375.417 128.708 375 129.042 374.792 129.167 374.375 129 374.042 128.792 373.708 128.375 373.583 128.042 373.75 127.417 374.083 126.708 374.25 126 374.25 123.792 374.25 121.958 372.417 122 370.208 122 368 123.833 366.167 126.042 366.167 128.25 366.167 130.083 367.958 130.083 370.208L130.083 371.542C129.333 371.542 128.75 370.958 128.75 370.208 128.75 368.875 127.833 367.75 126.542 367.5 125.25 367.25 123.958 367.958 123.5 369.167 123.042 370.375 123.5 371.792 124.625 372.458 125.75 373.125 127.208 372.917 128.083 371.917 128.583 372.5 129.333 372.833 130.125 372.833 130.875 372.833 131.458 372.25 131.458 371.5L131.458 370.167C131.458 367.167 129.042 364.75 126.042 364.75 123.042 364.75 120.625 367.167 120.625 370.167 120.583 373.208 123 375.625 126 375.667Z"/></g></svg>