<svg width="55" height="41" xmlns="http://www.w3.org/2000/svg" xmlns:xlink="http://www.w3.org/1999/xlink" xml:space="preserve" overflow="hidden"><g transform="translate(-143 -353)"><path d="M27.1678 24.9038C24.3378 24.9038 22.0738 22.6398 22.0738 19.8098 22.0738 16.9799 24.3378 14.7159 27.1678 14.7159 29.9978 14.7159 32.2617 16.9799 32.2617 19.8098 32.2617 22.6398 29.9978 24.9038 27.1678 24.9038ZM27.1678 7.92394C23.2624 7.92394 19.5834 9.84832 17.3761 13.1311 15.1687 16.3573 14.7159 20.489 16.1309 24.168L21.5078 36.0539 26.149 45.789C26.3188 46.1852 26.715 46.4116 27.1678 46.4116 27.6206 46.4116 28.0168 46.1852 28.1866 45.789L32.8277 36.0539 38.2047 24.168C39.6197 20.489 39.1669 16.3573 36.9595 13.1311 34.7521 9.84832 31.0732 7.92394 27.1678 7.92394Z" transform="matrix(1.01222 0 0 1 142.999 346.331)"/></g></svg>