<svg width="44" height="44" xmlns="http://www.w3.org/2000/svg" xmlns:xlink="http://www.w3.org/1999/xlink" xml:space="preserve" overflow="hidden"><g transform="translate(-59 -352)"><path d="M89.25 388.667 72.75 388.667 72.75 359.333 89.25 359.333 89.25 388.667ZM79.1667 355.667 82.8333 355.667C83.3375 355.667 83.75 356.079 83.75 356.583 83.75 357.087 83.3375 357.5 82.8333 357.5L79.1667 357.5C78.6625 357.5 78.25 357.087 78.25 356.583 78.25 356.079 78.6625 355.667 79.1667 355.667ZM91.0833 353.833 70.9167 353.833C70.4125 353.833 70 354.246 70 354.75L70 393.25C70 393.754 70.4125 394.167 70.9167 394.167L91.0833 394.167C91.5875 394.167 92 393.754 92 393.25L92 354.75C92 354.246 91.5875 353.833 91.0833 353.833Z"/></g></svg>