<?xml version="1.0" encoding="utf-8"?>
<!-- Generator: Adobe Illustrator 25.0.0, SVG Export Plug-In . SVG Version: 6.00 Build 0)  -->
<svg version="1.1" id="Layer_1" xmlns="http://www.w3.org/2000/svg" xmlns:xlink="http://www.w3.org/1999/xlink" x="0px" y="0px"
	 viewBox="0 0 898 227.4" style="enable-background:new 0 0 898 227.4;" xml:space="preserve">
<style type="text/css">
	.st0{fill:#FFFFFF;}
</style>
<path class="st0" d="M226.8,50.3c-43.4-13.3-77.6,12.4-91.6,39.5s-10.4,75.6-22.6,94s-26.7,27.9-50.3,24
	c-25-4.2-45.7-27.5-45.7-55.6C16.6,107.3,42,73.8,77.4,46.7c30.2-23.1,66-39.8,111.3-37.7s80.4,21.5,74.1,39.3s-39.8,7-62.9,34
	c-9.4,11-18.2,34.3-22.3,66.2c-4,31.9-21.5,61.6-44.5,76c0,0,36.3,9.8,66-19.4s24.9-80.8,25.3-93.6c0.4-12.9,6.1-30.3,37-45.9
	s12.5-38.2-6.1-49.7S219.4,0,180.4,0s-89,19.5-114.2,39.5c-37.6,29.8-57.4,61-64.5,93.6s7.7,67.3,35.1,82.5
	c27.4,15.2,89.6,24,113.8-27.2s9.6-96.1,39-120.1C209,52.4,226.8,50.3,226.8,50.3z"/>
<g>
	<path class="st0" d="M316.4,86.5c0,4.3,0.7,7.9,2.2,11c1.5,3,3.5,5.5,6.1,7.4c2.6,1.9,5.6,3.3,9,4.2c3.4,0.9,7.1,1.3,11,1.3
		c4.3,0,7.9-0.5,11-1.5c3-1,5.5-2.3,7.4-3.8c1.9-1.6,3.2-3.4,4.1-5.4c0.8-2,1.3-4.1,1.3-6.2c0-4.3-1-7.4-2.9-9.5
		c-1.9-2-4-3.5-6.3-4.3c-4-1.5-8.6-2.8-13.9-4.1c-5.3-1.3-11.8-3-19.5-5.1c-4.8-1.3-8.8-2.9-12-4.9c-3.2-2-5.7-4.3-7.6-6.8
		c-1.9-2.5-3.2-5.2-4-8c-0.8-2.8-1.2-5.7-1.2-8.6c0-5.6,1.2-10.5,3.5-14.6c2.3-4.1,5.5-7.5,9.3-10.3c3.9-2.7,8.2-4.7,13.2-6
		c4.9-1.3,9.9-2,14.9-2c5.8,0,11.3,0.8,16.5,2.3c5.2,1.5,9.7,3.8,13.6,6.8c3.9,3,7,6.8,9.3,11.2c2.3,4.4,3.4,9.6,3.4,15.4h-19.6
		c-0.5-7.2-3-12.3-7.4-15.3c-4.4-3-10-4.5-16.8-4.5c-2.3,0-4.6,0.2-7,0.7c-2.4,0.5-4.6,1.3-6.6,2.3c-2,1.1-3.6,2.6-4.9,4.5
		c-1.3,1.9-2,4.2-2,7c0,4,1.2,7.1,3.7,9.3c2.5,2.2,5.7,3.9,9.6,5.1c0.4,0.1,2.1,0.5,4.9,1.3c2.9,0.8,6.1,1.6,9.6,2.6
		c3.5,0.9,7,1.9,10.4,2.7c3.4,0.9,5.8,1.5,7.3,2c3.7,1.1,6.8,2.7,9.5,4.7c2.7,2,5,4.3,6.8,6.8c1.8,2.6,3.2,5.3,4.1,8.2
		c0.9,2.9,1.3,5.8,1.3,8.8c0,6.3-1.3,11.6-3.8,16c-2.6,4.4-5.9,8.1-10.1,10.9c-4.2,2.8-8.9,4.9-14.2,6.2c-5.3,1.3-10.8,2-16.3,2
		c-6.4,0-12.4-0.8-18-2.3s-10.5-4-14.7-7.2c-4.2-3.2-7.5-7.4-10-12.4c-2.5-5.1-3.8-11-3.9-17.9H316.4z"/>
	<path class="st0" d="M429.4,12H449v111.8h-19.6V12z"/>
	<path class="st0" d="M594.9,123.7h-12.5l-3-13.1c-5.2,5.9-10.4,10.1-15.7,12.4c-5.2,2.3-11.2,3.4-18,3.4c-8.4,0-15.8-1.5-22.5-4.6
		c-6.6-3.1-12.2-7.3-16.8-12.6c-4.6-5.3-8.1-11.5-10.6-18.6c-2.5-7.1-3.7-14.7-3.7-22.7c0-7.9,1.2-15.4,3.7-22.5
		c2.5-7.1,6-13.3,10.6-18.6c4.6-5.3,10.2-9.5,16.8-12.7c6.6-3.1,14.1-4.7,22.5-4.7c6.1,0,11.8,0.8,17.3,2.4c5.5,1.6,10.4,4,14.6,7.2
		c4.3,3.2,7.8,7.2,10.6,12c2.8,4.8,4.6,10.3,5.3,16.6h-19.1c-0.5-3.7-1.6-6.9-3.4-9.6c-1.7-2.8-3.9-5.1-6.5-7
		c-2.6-1.9-5.5-3.3-8.8-4.2c-3.2-0.9-6.6-1.4-10.2-1.4c-5.9,0-11.1,1.2-15.4,3.6c-4.3,2.4-7.9,5.6-10.6,9.6c-2.7,4-4.7,8.6-6,13.7
		c-1.3,5.1-2,10.3-2,15.7c0,5.3,0.7,10.5,2,15.7c1.3,5.1,3.3,9.7,6,13.7c2.7,4,6.2,7.2,10.6,9.6c4.3,2.4,9.5,3.6,15.4,3.6
		c5,0.1,9.4-0.5,13.3-2c3.9-1.4,7.1-3.4,9.8-6.1c2.7-2.7,4.7-5.9,6-9.8c1.4-3.9,2.1-8.1,2.2-12.8h-29.7V64.9h47.6V123.7z"/>
	<path class="st0" d="M640.3,12h27.6l30.8,87.5h0.3L729,12h27.2v111.8h-18.6V37.5h-0.3l-31,86.3h-16.1l-31-86.3h-0.3v86.3h-18.6V12z
		"/>
	<path class="st0" d="M834.1,12h20.8L898,123.7h-21l-10.5-29.6h-44.6l-10.5,29.6h-20.2L834.1,12z M827.2,79.3h34.1l-16.8-48.1h-0.5
		L827.2,79.3z"/>
</g>
<g>
	<path class="st0" d="M719.2,172.8c-0.6-0.4-1.2-0.6-1.9-0.8c-0.7-0.1-1.4-0.2-2.2-0.2h-9.6v10.5h9.7c1.9,0,3.3-0.4,4.3-1.3
		c1-0.9,1.5-2.2,1.5-4c0-1.1-0.2-1.9-0.5-2.6C720.2,173.7,719.8,173.2,719.2,172.8z"/>
	<path class="st0" d="M768.9,175c-0.8-1.2-1.9-2.2-3.2-2.9c-1.3-0.7-2.9-1.1-4.7-1.1s-3.4,0.4-4.7,1.1c-1.3,0.7-2.4,1.7-3.2,2.9
		c-0.8,1.2-1.4,2.6-1.8,4.1c-0.4,1.5-0.6,3.1-0.6,4.7s0.2,3.2,0.6,4.7c0.4,1.5,1,2.9,1.8,4.1c0.8,1.2,1.9,2.2,3.2,2.9
		c1.3,0.7,2.9,1.1,4.7,1.1s3.4-0.4,4.7-1.1c1.3-0.7,2.4-1.7,3.2-2.9c0.8-1.2,1.4-2.6,1.8-4.1c0.4-1.5,0.6-3.1,0.6-4.7
		s-0.2-3.2-0.6-4.7C770.3,177.6,769.7,176.3,768.9,175z"/>
	<polygon class="st0" points="467,172.8 461.8,187.4 472.2,187.4 467.1,172.8 	"/>
	<path class="st0" d="M386.5,175c-0.8-1.2-1.9-2.2-3.2-2.9c-1.3-0.7-2.9-1.1-4.7-1.1s-3.4,0.4-4.7,1.1c-1.3,0.7-2.4,1.7-3.2,2.9
		c-0.8,1.2-1.4,2.6-1.8,4.1c-0.4,1.5-0.6,3.1-0.6,4.7s0.2,3.2,0.6,4.7c0.4,1.5,1,2.9,1.8,4.1c0.8,1.2,1.9,2.2,3.2,2.9
		c1.3,0.7,2.9,1.1,4.7,1.1s3.4-0.4,4.7-1.1c1.3-0.7,2.4-1.7,3.2-2.9c0.8-1.2,1.4-2.6,1.8-4.1c0.4-1.5,0.6-3.1,0.6-4.7
		s-0.2-3.2-0.6-4.7C387.9,177.6,387.3,176.3,386.5,175z"/>
	<path class="st0" d="M291.7,143v79.4h605.5V143H291.7z M346.4,200.8h-23.1V167h5.9v28.7h17.2V200.8z M393.7,190.8
		c-0.7,2.1-1.8,4-3.2,5.6c-1.4,1.6-3.1,2.9-5.1,3.8s-4.3,1.4-6.8,1.4c-2.5,0-4.8-0.5-6.8-1.4s-3.7-2.2-5.1-3.8s-2.5-3.5-3.2-5.6
		c-0.7-2.1-1.1-4.4-1.1-6.9c0-2.4,0.4-4.7,1.1-6.8c0.7-2.1,1.8-4,3.2-5.6s3.1-2.9,5.1-3.8c2-0.9,4.3-1.4,6.8-1.4
		c2.5,0,4.8,0.5,6.8,1.4c2,0.9,3.7,2.2,5.1,3.8c1.4,1.6,2.5,3.5,3.2,5.6c0.7,2.1,1.1,4.4,1.1,6.8
		C394.8,186.3,394.4,188.6,393.7,190.8z M428.7,187.6v13.2h-5.9v-13.2L410.1,167h6.9l8.9,15.1l8.8-15.1h6.6L428.7,187.6z
		 M476.9,200.8l-3.2-8.9h-13.5l-3.2,8.9H451l13-33.8h6.3l13,33.8H476.9z M523.3,200.8h-23.1V167h5.9v28.7h17.2V200.8z M560.9,172.1
		h-10.7v28.7h-5.9v-28.7h-10.7V167h27.3V172.1z M593.3,187.6v13.2h-5.9v-13.2L574.7,167h6.9l8.9,15.1l8.8-15.1h6.6L593.3,187.6z
		 M679.4,200.8h-3.8l-0.9-4c-1.6,1.8-3.2,3-4.7,3.7c-1.6,0.7-3.4,1-5.4,1c-2.5,0-4.8-0.5-6.8-1.4c-2-0.9-3.7-2.2-5.1-3.8
		s-2.5-3.5-3.2-5.6c-0.7-2.1-1.1-4.4-1.1-6.9c0-2.4,0.4-4.7,1.1-6.8c0.7-2.1,1.8-4,3.2-5.6s3.1-2.9,5.1-3.8c2-0.9,4.3-1.4,6.8-1.4
		c1.8,0,3.6,0.2,5.2,0.7c1.7,0.5,3.1,1.2,4.4,2.2c1.3,1,2.4,2.2,3.2,3.6c0.9,1.5,1.4,3.1,1.6,5h-5.8c-0.2-1.1-0.5-2.1-1-2.9
		c-0.5-0.8-1.2-1.5-2-2.1c-0.8-0.6-1.7-1-2.6-1.3c-1-0.3-2-0.4-3.1-0.4c-1.8,0-3.4,0.4-4.7,1.1c-1.3,0.7-2.4,1.7-3.2,2.9
		c-0.8,1.2-1.4,2.6-1.8,4.1c-0.4,1.5-0.6,3.1-0.6,4.7s0.2,3.2,0.6,4.7c0.4,1.5,1,2.9,1.8,4.1c0.8,1.2,1.9,2.2,3.2,2.9
		c1.3,0.7,2.9,1.1,4.7,1.1c1.5,0,2.9-0.2,4-0.6c1.2-0.4,2.2-1,3-1.8c0.8-0.8,1.4-1.8,1.8-3c0.4-1.2,0.6-2.5,0.7-3.9h-9V183h14.4
		V200.8z M721.8,200.8c-0.4-0.7-0.7-1.5-0.8-2.4c-0.1-0.9-0.1-1.7-0.1-2.6c0-1.5-0.1-2.9-0.3-4c-0.2-1.1-0.5-2-1-2.8
		c-0.5-0.7-1.2-1.3-2.1-1.6c-0.9-0.3-2-0.5-3.3-0.5h-8.7v13.9h-5.9V167h16.1c3.7,0,6.5,0.8,8.4,2.4c1.9,1.6,2.8,3.8,2.8,6.7
		c0,1.6-0.2,2.9-0.7,4c-0.5,1.1-1,1.9-1.7,2.6c-0.6,0.6-1.3,1.1-1.9,1.4s-1.1,0.5-1.3,0.6v0.1c0.5,0.1,1,0.2,1.6,0.5
		c0.6,0.3,1.1,0.7,1.6,1.2c0.5,0.6,0.9,1.3,1.3,2.2c0.3,0.9,0.5,2,0.5,3.3c0,2,0.1,3.8,0.4,5.4c0.3,1.6,0.8,2.8,1.4,3.5H721.8z
		 M776.1,190.8c-0.7,2.1-1.8,4-3.2,5.6c-1.4,1.6-3.1,2.9-5.1,3.8s-4.3,1.4-6.8,1.4c-2.5,0-4.8-0.5-6.8-1.4s-3.7-2.2-5.1-3.8
		s-2.5-3.5-3.2-5.6c-0.7-2.1-1.1-4.4-1.1-6.9c0-2.4,0.4-4.7,1.1-6.8c0.7-2.1,1.8-4,3.2-5.6s3.1-2.9,5.1-3.8c2-0.9,4.3-1.4,6.8-1.4
		c2.5,0,4.8,0.5,6.8,1.4c2,0.9,3.7,2.2,5.1,3.8c1.4,1.6,2.5,3.5,3.2,5.6c0.7,2.1,1.1,4.4,1.1,6.8
		C777.2,186.3,776.9,188.6,776.1,190.8z M823.7,188.6c0,2.2-0.3,4.1-1,5.7c-0.7,1.6-1.6,3-2.8,4c-1.2,1.1-2.7,1.9-4.4,2.4
		c-1.7,0.5-3.6,0.8-5.7,0.8c-2.1,0-4-0.3-5.7-0.8c-1.7-0.5-3.2-1.3-4.4-2.4c-1.2-1.1-2.2-2.4-2.8-4s-1-3.5-1-5.7V167h5.9v19.7
		c0,1.1,0.1,2.3,0.2,3.5c0.1,1.2,0.4,2.2,0.9,3.1c0.5,0.9,1.3,1.7,2.4,2.3c1.1,0.6,2.5,0.9,4.5,0.9s3.4-0.3,4.5-0.9
		c1.1-0.6,1.8-1.4,2.4-2.3c0.5-0.9,0.8-2,0.9-3.1c0.1-1.2,0.2-2.3,0.2-3.5V167h5.9V188.6z M870.3,180.9c-0.3,1.2-0.9,2.3-1.7,3.4
		c-0.8,1-2,1.9-3.5,2.6c-1.5,0.7-3.5,1-5.9,1h-9v13h-5.9V167h14.9c2.4,0,4.4,0.3,5.9,1c1.5,0.7,2.7,1.6,3.5,2.6
		c0.8,1,1.4,2.2,1.7,3.4c0.3,1.2,0.4,2.4,0.4,3.4C870.7,178.5,870.6,179.6,870.3,180.9z"/>
	<path class="st0" d="M863,173c-0.5-0.4-1.2-0.7-1.8-0.9c-0.7-0.2-1.4-0.2-2.2-0.2h-8.8V183h8.7c0.7,0,1.3-0.1,2-0.3
		c0.7-0.2,1.3-0.5,1.9-0.9c0.6-0.4,1.1-1,1.4-1.7c0.4-0.7,0.5-1.6,0.5-2.7c0-1.1-0.2-2-0.5-2.7C864,174,863.6,173.4,863,173z"/>
</g>
</svg>
